<?xml version="1.0" standalone="no"?>
<!DOCTYPE svg PUBLIC "-//W3C//DTD SVG 20010904//EN"
 "http://www.w3.org/TR/2001/REC-SVG-20010904/DTD/svg10.dtd">
<svg version="1.0" xmlns="http://www.w3.org/2000/svg"
 width="283.000000pt" height="283.000000pt" viewBox="0 0 283.000000 283.000000"
 preserveAspectRatio="xMidYMid meet">
<metadata>
Created by potrace 1.11, written by Peter Selinger 2001-2013
</metadata>
<g transform="translate(0.000000,283.000000) scale(0.100000,-0.100000)"
fill="#000000" stroke="none">
<path d="M1415 2673 c1 -96 -3 -164 -10 -172 -6 -9 -6 -12 0 -9 13 8 13 -451
1 -471 -5 -8 -5 -12 0 -8 5 3 9 -119 9 -296 l0 -302 709 0 708 0 -6 81 c-25
366 -170 683 -426 932 -245 239 -554 375 -901 398 l-85 6 1 -159z"/>
</g>
</svg>
